<?xml version="1.0" encoding="UTF-8"?>
<svg id="Layer_2" xmlns="http://www.w3.org/2000/svg" viewBox="0 0 1.11 19.82">
  <g id="Layer_1-2" data-name="Layer_1">
    <path d="M0,9.92c.3-.63.48-.85.48-1.77V2.48C.48,1.45.48.83.62.46c.12-.36.44-.46.46-.46.04,0,.04.04.04.08,0,.06-.14.04-.28.28-.12.22-.14.62-.14.99v3.93c0,.56.02,1.11.02,1.67,0,.26,0,.54-.02.81,0,.58-.1,1.29-.4,1.81,0,.06-.14.34-.2.36.06,0,.2.28.2.34.3.52.4,1.23.4,1.81.02.28.02.56.02.81,0,.56-.02,1.11-.02,1.67v3.93c0,.4.02.77.14.99.14.24.28.22.28.3,0,.02-.04.06-.04.06-.02-.02-.34-.1-.46-.44-.14-.4-.14-1.01-.14-2.04v-5.67c0-.91-.18-1.13-.48-1.75Z"/>
  </g>
</svg>