<?xml version="1.0" encoding="UTF-8"?>
<svg id="Layer_2" xmlns="http://www.w3.org/2000/svg" viewBox="0 0 1.19 19.78">
  <g id="Layer_1-2" data-name="Layer_1">
    <path d="M.75,8.11C.75,6.86.2,5.77.2,3.81S.62.67.97.14c.04-.04.1-.14.12-.14.04,0,.06.02.08.06,0,.08-.02.16-.04.22-.12.3-.26.59-.36.87-.16.44-.26.91-.26,1.39,0,1.07.48,3.41.6,4.6v.32c0,1.17-.48,2.04-.95,2.44.5.36.95,1.27.95,2.44v.32c-.12,1.17-.6,3.53-.6,4.58s.52,2.06.6,2.22c.02.02.08.16.08.24,0,.04-.08.08-.08.08-.02,0-.1-.08-.14-.12-.36-.56-.77-1.71-.77-3.69,0-1.45.56-2.98.56-4.36,0-1.29-.46-1.31-.75-1.71.46-.63.75-.85.75-1.79Z"/>
  </g>
</svg>