<?xml version="1.0" encoding="UTF-8"?>
<svg id="Layer_2" xmlns="http://www.w3.org/2000/svg" viewBox="0 0 1.33 19.78">
  <g id="Layer_1-2" data-name="Layer_1">
    <path d="M0,9.9c.5-.63.83-1.15.83-2.08C.83,6.57.2,5.77.2,3.81S.69.67,1.09.14c.06-.1.1-.14.14-.14.06,0,.1.04.1.1,0,.02-.02.06-.02.08l-.22.4c-.26.62-.46,1.29-.46,1.96,0,1.07.54,2.92.65,4.11.02.1.02.22.02.32,0,1.17-.54,2.58-1.07,2.94.54.36,1.07,1.77,1.07,2.94,0,.12,0,.22-.02.32-.12,1.17-.65,3.03-.65,4.09s.5,2.08.59,2.24c.04.04.04.08.04.14,0,.08-.02.16-.04.16-.06,0-.1-.06-.14-.12-.4-.56-.89-1.71-.89-3.69,0-1.45.63-2.68.63-4.07,0-1.29-.52-1.61-.83-2Z"/>
  </g>
</svg>